<svg version="1.0" xmlns="http://www.w3.org/2000/svg" width="385" height="99" viewBox="0 0 3850 990"><g fill="#31d9fc"><path d="M242 887c-29-31-44-106-34-172l9-54-73-36C40 574 6 518 37 452c18-38 85-86 145-104 31-9 37-15 33-32-19-98-10-174 27-213 40-42 139-23 214 40 37 31 47 33 65 11 28-34 113-74 157-74 79 0 109 57 100 189l-5 67 49 18c27 9 69 36 93 60 38 36 45 49 45 81s-7 45-45 81c-24 24-66 51-92 60l-48 17 4 84c5 126-23 173-102 173-42 0-98-25-146-66l-32-27-42 30c-67 48-103 63-150 63-32 0-49-6-65-23zm121-43c18-9 47-27 65-41l32-24-40-48c-37-44-46-49-93-54-29-3-56-2-60 2-12 12-10 136 2 160 14 25 50 27 94 5zm352-8c12-17 15-43 13-92l-3-69-55 3c-50 3-58 7-92 45-21 23-37 49-35 57 3 19 104 80 134 80 13 0 29-10 38-24zM516 692c-9-2-25-2-36 0-20 3-20 4-4 27l17 24 20-24c17-21 17-24 3-27zm97-117c20-35 37-72 37-82s-18-46-40-80l-39-63H414l-39 66c-21 37-38 72-38 79s17 42 38 79l39 66h161l38-65zm-273 48c0-5-9-21-19-36l-18-29-11 31c-9 25-8 31 6 34 28 8 42 7 42 0zm347-1c19-6 20-10 9-36l-12-30-22 37c-22 38-18 41 25 29zm-437-68c11-25 20-51 20-59 0-21-40-105-51-105-5 0-29 10-52 21-87 44-108 86-64 127 25 24 95 61 115 62 7 0 22-21 32-46zm597 10c53-30 69-58 55-90-12-24-80-69-122-79-23-5-27-1-45 47l-20 53 20 53c18 48 22 52 45 47 14-4 44-17 67-31zM339 365c-2-2-16-1-31 2-24 5-26 7-16 35l11 30 20-31c11-18 18-34 16-36zm361 23c0-10-6-18-14-18s-22-3-31-6c-13-5-12 1 6 31 22 37 38 34 39-7zM417 261l42-46-27-23c-39-33-97-62-126-62-34 0-46 26-46 99 0 89 3 93 64 85 45-5 56-12 93-53zm307 43c3-9 6-41 6-73 0-116-53-130-168-44l-33 24 41 49c41 49 41 49 131 58 9 1 20-5 23-14zm-210-29c-17-27-28-25-44 6-10 17-7 19 25 19h35l-16-25z"/><path d="M436 559c-35-28-37-95-3-127 35-33 99-30 126 4 67 85-38 190-123 123zM2841 700c-10-5-11-27-6-85l8-78-31 23c-41 30-73 22-95-26l-18-37-29 47c-46 73-80 72-80-1 0-18-4-33-9-33-4 0-22 23-39 50-35 57-66 66-76 24-4-14-4-35 0-47 5-16-4-11-41 21-56 49-103 62-140 38-54-35-23-176 42-192 67-17 79 58 19 113-43 39-44 43-12 43 27 0 117-66 142-105 29-45 60-23 48 33l-5 27 17-27c10-15 28-32 41-39 29-15 42-4 52 43l7 33 17-32c19-35 51-58 68-48 5 4 17 24 26 46s22 39 31 39c22 0 72-50 72-71 0-23 26-31 40-14 10 13 16 12 37-5 52-41 109-16 97 41-5 20 1 17 35-20 23-25 41-53 41-67 0-35 18-74 34-74 25 0 27 16 11 109-12 67-13 96-5 111 6 11 14 20 18 20 14 0 58-36 108-88 39-40 58-52 81-52 42 0 55 19 47 68-4 24-2 42 5 46 13 8 60-15 84-42 17-19 17-20-3-25-31-8-22-41 11-45 20-2 28-11 35-40 7-28 15-38 33-40 22-4 23-2 17 33l-7 37 46-7c41-6 46-4 43 11-2 11-22 23-53 33-47 15-50 18-58 60-5 27-5 47 1 53 23 23 102-29 102-67 0-27 42-81 70-90 37-12 60 3 60 40 0 28-8 40-40 66-26 21-37 36-31 42 12 12 63-8 87-34 24-27 36-24 32 8-6 56-122 97-162 58-13-14-18-13-48 5-18 11-50 20-71 20-31 0-39-4-49-27-17-39-16-38-36-20-27 25-76 32-93 14-12-13-17-12-42 9-36 31-87 32-94 4-5-19-7-19-22-6-48 44-115 23-127-40l-6-35-27 24c-74 69-151 98-151 58 0-11 9-23 20-26 21-7 50-53 50-80 0-22-16-10-51 37-22 31-29 52-29 87 0 79-18 111-49 91zm489-183c27-43 26-61-1-47-22 12-59 67-59 88s38-5 60-41zm395-47c10-11 13-20 7-20s-16 9-22 20-9 20-7 20 12-9 22-20zM1073 623c-7-2-13-13-13-24 0-16 7-19 46-19 44 0 114-24 114-40 0-4-27-17-60-29-115-42-121-123-11-160 72-24 131-8 131 35 0 30-29 44-42 21-12-22-66-22-96-1-22 15-22 17-7 34 9 10 36 23 61 30 58 16 87 52 72 86-21 46-143 88-195 67zM1611 616c-53-29-64-89-30-161 31-65 92-115 141-115 45 0 93 22 108 49 36 68-28 186-122 225-45 19-65 20-97 2zm107-63c52-33 81-125 47-153-53-44-145 35-145 124 0 55 39 67 98 29zM1316 611c-4-6 0-54 9-106s15-107 13-122c-3-28-2-28 82-40 96-13 120-10 120 17 0 15-12 19-72 27-72 8-72 8-79 42l-7 33 63-7c50-5 63-3 68 9 9 23-16 37-77 43-49 5-57 9-62 30-4 13-4 27 0 30 3 4 36 2 73-4 74-11 93-8 93 13s-37 32-133 40c-59 4-86 3-91-5zM2104 605c-4-8-5-55-2-103l4-87h-55c-59 0-80-18-39-34 30-12 226-37 256-33 13 2 22 10 22 21 0 15-11 19-61 24-33 3-62 7-64 9s-8 51-12 108c-7 88-11 105-26 108-9 2-20-4-23-13z"/></g></svg>